<svg width="101" height="101" viewBox="0 0 101 101" fill="none" xmlns="http://www.w3.org/2000/svg">
<mask id="path-1-outside-1_2102_48" maskUnits="userSpaceOnUse" x="8.41602" y="8.0721" width="84" height="84" fill="black">
<rect fill="white" x="8.41602" y="8.0721" width="84" height="84"/>
<path fill-rule="evenodd" clip-rule="evenodd" d="M75.5552 72.5013C80.8006 66.6181 83.9883 58.8604 83.9883 50.3582C83.9883 31.9748 69.0856 17.0721 50.7021 17.0721C32.3187 17.0721 17.416 31.9748 17.416 50.3582C17.416 68.7417 32.3187 83.6444 50.7021 83.6444C57.0259 83.6444 62.9377 81.8809 67.9728 78.819L77.3415 80.8286L75.5552 72.5013Z"/>
</mask>
<path d="M75.5552 72.5013L69.3486 66.9675L66.5395 70.1181L67.4248 74.2453L75.5552 72.5013ZM67.9728 78.819L69.7168 70.6886L66.4804 69.9944L63.6522 71.7143L67.9728 78.819ZM77.3415 80.8286L75.5975 88.959L88.1684 91.6555L85.4718 79.0846L77.3415 80.8286ZM75.673 50.3582C75.673 56.7419 73.2884 62.5486 69.3486 66.9675L81.7618 78.035C88.3128 70.6875 92.3036 60.9789 92.3036 50.3582H75.673ZM50.7021 25.3874C64.4931 25.3874 75.673 36.5672 75.673 50.3582H92.3036C92.3036 27.3824 73.678 8.75678 50.7021 8.75678V25.3874ZM25.7313 50.3582C25.7313 36.5672 36.9111 25.3874 50.7021 25.3874V8.75678C27.7263 8.75678 9.1007 27.3824 9.1007 50.3582H25.7313ZM50.7021 75.329C36.9111 75.329 25.7313 64.1492 25.7313 50.3582H9.1007C9.1007 73.3341 27.7263 91.9597 50.7021 91.9597V75.329ZM63.6522 71.7143C59.8823 74.0068 55.4593 75.329 50.7021 75.329V91.9597C58.5924 91.9597 65.9932 89.755 72.2934 85.9237L63.6522 71.7143ZM66.2288 86.9494L75.5975 88.959L79.0855 72.6982L69.7168 70.6886L66.2288 86.9494ZM85.4718 79.0846L83.6856 70.7573L67.4248 74.2453L69.2111 82.5726L85.4718 79.0846Z" fill="white" mask="url(#path-1-outside-1_2102_48)"/>
</svg>
