<svg width="100" height="100" viewBox="0 0 100 100" fill="none" xmlns="http://www.w3.org/2000/svg">
<path d="M13.1077 44.7422L15.8832 47.8378L15.8832 47.8378L13.1077 44.7422ZM86.6763 44.7422L83.9008 47.8378L83.9008 47.8378L86.6763 44.7422ZM51.2798 13.0058L54.0553 9.9102L54.0553 9.9102L51.2798 13.0058ZM48.5043 13.0058L51.2798 16.1014L51.2798 16.1014L48.5043 13.0058ZM41.5639 87.3621H37.4062V91.5197H41.5639V87.3621ZM58.2196 87.3621V91.5197H62.3773V87.3621H58.2196ZM16.5743 46.29C16.5743 46.8807 16.323 47.4435 15.8832 47.8378L10.3322 41.6466C9.01283 42.8296 8.25898 44.518 8.25898 46.29H16.5743ZM16.5743 85.2833V46.29H8.25898V85.2833H16.5743ZM14.4955 83.2045C15.6436 83.2045 16.5743 84.1352 16.5743 85.2833H8.25898C8.25898 88.7277 11.0512 91.5198 14.4955 91.5198V83.2045ZM85.2886 83.2045H14.4955V91.5198H85.2886V83.2045ZM83.2097 85.2833C83.2097 84.1352 84.1405 83.2045 85.2886 83.2045V91.5198C88.7329 91.5198 91.5251 88.7277 91.5251 85.2833H83.2097ZM83.2097 46.29V85.2833H91.5251V46.29H83.2097ZM83.9008 47.8378C83.461 47.4435 83.2097 46.8807 83.2097 46.29H91.5251C91.5251 44.518 90.7712 42.8296 89.4518 41.6466L83.9008 47.8378ZM48.5043 16.1014L83.9008 47.8378L89.4518 41.6466L54.0553 9.9102L48.5043 16.1014ZM51.2798 16.1014C50.4901 16.8094 49.294 16.8094 48.5043 16.1014L54.0553 9.9102C51.6862 7.78609 48.0979 7.78607 45.7288 9.91021L51.2798 16.1014ZM15.8832 47.8378L51.2798 16.1014L45.7288 9.9102L10.3322 41.6466L15.8832 47.8378ZM45.7215 66.5424C45.7215 64.2393 47.5886 62.3722 49.8918 62.3722V54.0569C42.9962 54.0569 37.4062 59.6469 37.4062 66.5424H45.7215ZM45.7215 87.3621V66.5424H37.4062V87.3621H45.7215ZM58.2196 83.2044H41.5639V91.5197H58.2196V83.2044ZM54.062 66.5424V87.3621H62.3773V66.5424H54.062ZM49.8918 62.3722C52.1949 62.3722 54.062 64.2393 54.062 66.5424H62.3773C62.3773 59.6469 56.7873 54.0569 49.8918 54.0569V62.3722Z" fill="white"/>
</svg>
