<svg width="100" height="100" viewBox="0 0 100 100" fill="none" xmlns="http://www.w3.org/2000/svg">
<path d="M21.6406 6.24996C4.84374 10.4687 -4.21876 29.6093 2.34374 47.0312C4.37499 52.5 7.73436 57.5781 13.2031 63.5156C18.125 68.8281 44.6875 92.1875 47.5 93.6718C48.5156 94.2187 50.2344 94.4531 51.25 94.2187C53.4375 93.6718 80.5469 70.2343 86.7969 63.5156C100 49.1406 103.281 34.6093 96.3281 20.8593C91.4844 11.1718 83.0469 5.93746 72.2656 5.85933C64.6094 5.85933 58.9844 8.12496 53.5937 13.5937L50 17.1093L46.4062 13.5937C40.0781 7.18746 29.9219 4.21871 21.6406 6.24996Z" fill="white"/>
</svg>
