<svg width="100" height="101" viewBox="0 0 100 101" fill="none" xmlns="http://www.w3.org/2000/svg">
<path fill-rule="evenodd" clip-rule="evenodd" d="M37.1208 81.1063C37.8511 81.41 38.5945 81.6884 39.35 81.9404C42.6628 83.0457 46.2075 83.6444 49.8919 83.6444C68.2753 83.6444 83.178 68.7417 83.178 50.3582C83.178 31.9748 68.2753 17.0721 49.8919 17.0721C31.5085 17.0721 16.6058 31.9748 16.6058 50.3582C16.6058 60.629 21.2575 69.8132 28.5691 75.9191C29.4571 76.6607 30.3844 77.3569 31.3473 78.0041L30.8188 84.045L37.1208 81.1063ZM8.29045 50.3582C8.29045 62.9298 13.8721 74.1953 22.6668 81.8143L22.5351 83.3203L21.2798 97.668L34.333 91.5813L37.5308 90.0901C41.4434 91.3063 45.5974 91.9597 49.8919 91.9597C72.8677 91.9597 91.4933 73.3341 91.4933 50.3582C91.4933 27.3824 72.8677 8.75678 49.8919 8.75678C26.916 8.75678 8.29045 27.3824 8.29045 50.3582ZM30.5146 60.3231L41.6148 40.7865C41.8675 40.3419 42.4579 40.2285 42.8573 40.548L54.5695 49.9178C54.8732 50.1607 55.3047 50.1607 55.6084 49.9178L68.5147 39.5927C68.8875 39.2945 69.3869 39.7571 69.118 40.1516L55.5946 59.9859C55.3218 60.386 54.7662 60.4693 54.3881 60.1668L42.6656 50.7888C42.3398 50.5282 41.8713 50.5493 41.5703 50.8383L31.164 60.8284C30.8181 61.1604 30.2777 60.74 30.5146 60.3231Z" fill="white"/>
</svg>
