<svg width="101" height="100" viewBox="0 0 101 100" fill="none" xmlns="http://www.w3.org/2000/svg">
<path fill-rule="evenodd" clip-rule="evenodd" d="M50.2972 12.473C29.6313 12.473 12.8782 29.226 12.8782 49.8919C12.8782 59.8128 16.7391 68.8319 23.0403 75.5288C25.8048 70.1793 31.3874 66.5225 37.8242 66.5225H62.7701C69.2069 66.5225 74.7896 70.1793 77.554 75.5288C83.8552 68.8319 87.7161 59.8128 87.7161 49.8919C87.7161 29.226 70.9631 12.473 50.2972 12.473ZM70.847 81.168C69.9569 77.5341 66.6784 74.8378 62.7701 74.8378H37.8242C33.9159 74.8378 30.6374 77.5341 29.7473 81.168C35.6455 85.0512 42.7074 87.3108 50.2972 87.3108C57.8869 87.3108 64.9488 85.0512 70.847 81.168ZM4.56293 49.8919C4.56293 24.6336 25.0388 4.15766 50.2972 4.15766C75.5555 4.15766 96.0314 24.6336 96.0314 49.8919C96.0314 75.1502 75.5555 95.6261 50.2972 95.6261C25.0388 95.6261 4.56293 75.1502 4.56293 49.8919ZM50.2972 29.1036C43.4085 29.1036 37.8242 34.6879 37.8242 41.5766C37.8242 48.4652 43.4085 54.0495 50.2972 54.0495C57.1858 54.0495 62.7701 48.4652 62.7701 41.5766C62.7701 34.6879 57.1858 29.1036 50.2972 29.1036ZM29.5089 41.5766C29.5089 30.0955 38.8161 20.7883 50.2972 20.7883C61.7782 20.7883 71.0854 30.0955 71.0854 41.5766C71.0854 53.0576 61.7782 62.3649 50.2972 62.3649C38.8161 62.3649 29.5089 53.0576 29.5089 41.5766Z" fill="white"/>
</svg>
