<svg width="101" height="100" viewBox="0 0 101 100" fill="none" xmlns="http://www.w3.org/2000/svg">
<path fill-rule="evenodd" clip-rule="evenodd" d="M8.53174 33.2612C8.53174 19.484 19.7004 8.31531 33.4777 8.31531H66.739C80.5162 8.31531 91.6849 19.484 91.6849 33.2613V66.5225C91.6849 80.2998 80.5162 91.4685 66.7389 91.4685H33.4777C19.7004 91.4685 8.53174 80.2998 8.53174 66.5225V33.2612ZM17.371 29.1036H36.8058L30.0705 16.98C23.872 18.2705 18.939 23.0116 17.371 29.1036ZM57.5941 29.1036H46.3182L39.3888 16.6306H50.6647L57.5941 29.1036ZM67.1065 29.1036H82.8456C80.9995 21.9307 74.4882 16.6306 66.739 16.6306H60.1771L67.1065 29.1036ZM83.3696 37.4189H16.8471V66.5225C16.8471 75.7074 24.2928 83.1531 33.4777 83.1531H66.7389C75.9238 83.1531 83.3696 75.7074 83.3696 66.5225V37.4189ZM60.8677 58.5995C61.6752 58.115 61.6752 56.9448 60.8677 56.4604L43.751 46.1904C42.9197 45.6916 41.862 46.2904 41.862 47.2599V67.7999C41.862 68.7695 42.9197 69.3683 43.751 68.8695L60.8677 58.5995Z" fill="white"/>
</svg>
