<svg width="101" height="100" viewBox="0 0 101 100" fill="none" xmlns="http://www.w3.org/2000/svg">
<path fill-rule="evenodd" clip-rule="evenodd" d="M32.5081 16.8867C32.4085 17.1047 32.3127 17.3246 32.2208 17.5464C31.4275 19.4618 30.938 21.4856 30.7668 23.545H19.5192C15.1945 23.545 11.5918 26.86 11.2326 31.1698L8.05005 69.3606C7.04005 81.4805 16.6046 91.8752 28.7665 91.8752H72.638C84.8 91.8752 94.3645 81.4805 93.3545 69.3606L90.172 31.1698C89.8128 26.86 86.2101 23.545 81.8854 23.545H70.6392C70.4681 21.4856 69.9785 19.4618 69.1852 17.5464C69.0933 17.3246 68.9975 17.1047 68.8979 16.8867C67.9073 14.7192 66.5365 12.7442 64.8487 11.0564C62.991 9.19874 60.7857 7.72518 58.3586 6.71984C55.9315 5.7145 53.3301 5.19705 50.703 5.19705C48.0759 5.19705 45.4746 5.7145 43.0474 6.71984C40.6203 7.72518 38.415 9.19874 36.5574 11.0564C34.8695 12.7442 33.4987 14.7192 32.5081 16.8867ZM63.3337 23.545H38.0723C38.2171 22.4416 38.5061 21.3596 38.9338 20.3271C39.574 18.7815 40.5123 17.3772 41.6953 16.1943C42.8782 15.0113 44.2825 14.073 45.828 13.4328C47.3736 12.7926 49.0301 12.4631 50.703 12.4631C52.3759 12.4631 54.0324 12.7926 55.578 13.4328C57.1235 14.073 58.5279 15.0113 59.7108 16.1943C60.8937 17.3772 61.832 18.7815 62.4722 20.3271C62.8999 21.3596 63.1889 22.4416 63.3337 23.545ZM81.8854 31.8603H19.5192L16.3366 70.0511C15.7306 77.3231 21.4693 83.5599 28.7665 83.5599H72.638C79.9352 83.5599 85.6739 77.3231 85.0679 70.0511L81.8854 31.8603ZM41.6953 49.2134C40.5294 48.0476 39.6011 46.6666 38.9617 45.1474L38.9338 45.0806C38.7587 44.658 38.6069 44.227 38.4787 43.7897C38.3518 43.3568 38.1737 42.9374 37.9511 42.5473C37.1835 41.2023 35.8865 40.2057 34.3311 40.2057C32.3246 40.2057 30.6646 41.8453 31.027 43.8188C31.1518 44.498 31.3116 45.1706 31.5061 45.834C31.7075 46.5207 31.9459 47.1975 32.2208 47.8613C32.2485 47.9281 32.2766 47.9948 32.305 48.0613C33.3076 50.4096 34.7509 52.5449 36.5574 54.3513C38.415 56.209 40.6203 57.6825 43.0474 58.6879C45.4746 59.6932 48.0759 60.2106 50.703 60.2106C53.3301 60.2106 55.9315 59.6932 58.3586 58.6879C60.7857 57.6825 62.991 56.209 64.8487 54.3513C66.6551 52.5449 68.0984 50.4096 69.1011 48.0613C69.1294 47.9948 69.1575 47.9281 69.1852 47.8613C69.4601 47.1975 69.6986 46.5207 69.8999 45.834C70.0944 45.1706 70.2543 44.498 70.379 43.8188C70.7414 41.8453 69.0814 40.2057 67.0749 40.2057C65.5196 40.2057 64.2225 41.2023 63.4549 42.5473C63.2323 42.9374 63.0543 43.3568 62.9273 43.7897C62.7991 44.227 62.6473 44.658 62.4722 45.0807L62.4443 45.1474C61.8049 46.6666 60.8766 48.0476 59.7108 49.2134C58.5279 50.3964 57.1235 51.3347 55.578 51.9749C54.0324 52.6151 52.3759 52.9446 50.703 52.9446C49.0301 52.9446 47.3736 52.6151 45.828 51.9749C44.2825 51.3347 42.8782 50.3964 41.6953 49.2134Z" fill="white"/>
</svg>
