<svg width="300" height="86" viewBox="0 0 300 86" fill="none" xmlns="http://www.w3.org/2000/svg">
<path d="M15.4475 0.295022C9.30503 2.86537 2.55071 10.1193 0.418837 19.2432C-2.28594 30.7935 8.95915 35.6712 9.87793 34.0798C10.959 32.1922 7.85649 31.5587 7.22294 25.5698C6.40778 17.8252 9.99906 9.17246 14.5309 5.37572C15.3762 4.68169 15.3352 5.66112 15.3352 7.46657C15.3352 10.7227 15.1535 39.8546 15.1535 45.9367C15.1535 54.1699 14.8163 56.7622 14.1936 59.3221C13.5816 61.9253 12.5915 63.6808 13.3374 64.3642C14.1827 65.1187 17.774 63.322 19.8561 60.4161C22.3468 56.9351 23.2246 52.7515 23.3867 48.2111C23.5705 42.7431 23.5598 34.0494 23.5705 29.1004C23.5705 24.5491 23.6418 11.2437 23.4991 3.23314C23.4581 1.27445 18.0096 -0.777483 15.4475 0.295022ZM298.645 43.5174C297.767 43.5174 297.35 44.4362 297.012 45.9778C295.849 51.355 294.625 52.5679 293.043 52.5679C291.278 52.5679 289.696 49.9064 289.279 44.5789C288.963 40.3953 289.013 32.681 289.421 25.0077C289.503 23.4359 289.073 21.877 284.848 20.3355C283.023 19.6825 280.379 18.7031 279.065 21.8857C275.34 30.8562 273.891 37.9976 273.543 40.8861C273.535 41.0374 273.35 41.0591 273.318 40.7131C273.106 38.3954 272.615 34.1814 272.555 25.3234C272.533 23.6111 272.176 22.1299 270.259 20.9258C269.024 20.1516 265.268 18.7636 263.911 20.4068C262.747 21.7537 261.392 25.3666 259.974 29.6519C258.83 33.1415 258.034 35.509 258.034 35.509C258.034 35.509 258.042 26.0995 258.064 22.5279C258.064 21.1808 257.146 20.7333 256.871 20.6511C255.615 20.2836 253.135 19.6825 252.095 19.6825C250.8 19.6825 250.493 20.4068 250.493 21.4576C250.493 21.5895 250.279 33.8334 250.279 42.3953V43.5995C249.574 47.5389 247.25 52.8857 244.729 52.8857C242.208 52.8857 241.014 50.6501 241.014 40.4472C241.014 34.4971 241.198 31.907 241.28 27.6001C241.33 25.1201 241.431 23.2131 241.423 22.7743C241.401 21.4576 239.105 20.7831 238.043 20.5387C236.973 20.2836 236.044 20.2014 235.311 20.2317C234.29 20.2943 233.566 20.9668 233.566 21.9073V23.3343C232.249 21.2543 230.115 19.8036 228.688 19.3862C224.872 18.2534 220.881 19.263 217.871 23.4661C215.484 26.8153 214.044 30.5989 213.484 36.0388C213.065 40.0191 213.199 44.0493 213.943 47.4567C213.045 51.3031 211.391 52.8857 209.586 52.8857C206.953 52.8857 205.057 48.5983 205.271 41.1801C205.424 36.3047 206.393 32.8864 207.463 27.9265C207.923 25.8141 207.545 24.7137 206.617 23.6412C205.77 22.6813 203.954 22.1818 201.353 22.7829C199.504 23.2219 196.843 23.691 194.423 24.0499C194.423 24.0499 194.566 23.4661 194.689 22.4371C195.312 17.0382 189.444 17.4772 187.576 19.2025C186.454 20.2317 185.689 21.4468 185.403 23.6305C184.945 27.1007 187.771 28.733 187.771 28.733C186.843 32.9772 184.577 38.5272 182.22 42.538C180.964 44.6915 180.004 46.2741 178.761 47.967C178.75 47.3443 178.75 46.7108 178.75 46.0902C178.728 37.1609 178.841 30.1319 178.893 27.6001C178.944 25.1201 179.046 23.2629 179.046 22.824C179.025 21.864 178.464 21.4878 177.28 21.0381C176.24 20.6316 175.005 20.3355 173.729 20.2317C172.127 20.1106 171.148 20.9668 171.178 21.9765V23.3343C169.853 21.2543 167.719 19.8036 166.311 19.3862C162.484 18.2534 158.495 19.263 155.486 23.4661C153.108 26.8153 151.536 31.4984 151.086 35.9869C150.679 40.1921 150.751 43.7422 151.322 46.7432C150.71 49.742 148.965 52.8857 146.987 52.8857C144.466 52.8857 143.026 50.6501 143.026 40.4472C143.026 34.4971 143.209 31.907 143.302 27.6001C143.352 25.1201 143.445 23.2131 143.434 22.7743C143.423 21.4576 141.129 20.7831 140.057 20.5387C138.946 20.2749 137.975 20.1928 137.24 20.2317C136.26 20.3138 135.577 21.1808 135.577 21.8445V23.3343C134.252 21.2543 132.118 19.8036 130.7 19.3862C126.884 18.2534 122.925 19.2847 119.893 23.4661C117.915 26.1926 116.313 29.2217 115.487 35.9371C115.262 37.8765 115.15 39.6905 115.161 41.3856C114.374 46.2005 110.895 51.7527 108.058 51.7527C106.385 51.7527 104.793 48.527 104.793 41.6406C104.793 32.4778 105.364 19.4166 105.466 18.1517C105.466 18.1517 109.057 18.089 109.762 18.0804C111.548 18.0695 113.18 18.1107 115.558 17.9875C116.763 17.927 117.915 13.6308 116.67 13.0903C116.118 12.8546 112.16 12.6405 110.588 12.6103C109.262 12.58 105.598 12.3055 105.598 12.3055C105.598 12.3055 105.926 3.64194 105.998 2.73386C106.058 1.95762 105.079 1.57071 104.508 1.33493C103.128 0.744683 101.894 0.468043 100.445 0.171783C98.4152 -0.245447 97.5072 0.163189 97.3341 1.8647C97.0682 4.44835 96.9255 12.0201 96.9255 12.0201C95.4358 12.0201 90.3852 11.7217 88.9041 11.7217C87.529 11.7217 86.0372 17.6414 87.9464 17.7128C90.1409 17.795 93.9462 17.8772 96.4758 17.9463C96.4758 17.9463 96.3633 31.2237 96.3633 35.3144V36.5792C94.9667 43.833 90.0781 47.753 90.0781 47.753C91.1289 42.9467 88.9863 39.3445 85.1096 36.3047C83.6805 35.1717 80.8655 33.0377 77.7111 30.7221C77.7111 30.7221 79.5379 28.9168 81.1595 25.304C82.3033 22.7419 82.3552 19.7949 79.5379 19.1506C74.8852 18.0804 71.0583 21.4987 69.9058 25.1504C69.028 27.9676 69.4886 30.0691 71.2313 32.242L71.629 32.7329C70.5891 34.7522 69.1404 37.4765 67.9254 39.5889C64.5287 45.4568 61.9666 50.0901 60.0381 50.0901C58.4879 50.0901 58.5073 45.3855 58.5073 40.9769C58.5073 37.1804 58.7927 31.4572 59.0176 25.5396C59.089 23.5893 58.1095 22.4672 56.4685 21.4576C55.4674 20.8456 53.3442 19.6415 52.1097 19.6415C50.2741 19.6415 44.9466 19.8857 39.9176 34.4258C39.2841 36.2635 38.0387 39.5997 38.0387 39.5997L38.1513 22.1105C38.1513 21.7018 37.9372 21.3149 37.4378 21.0381C36.5902 20.5797 34.3156 19.6415 32.3157 19.6415C31.3449 19.6415 30.8649 20.0911 30.8649 20.9776L30.7028 48.3238C30.7028 50.4059 30.7525 52.8338 30.958 53.8955C31.1612 54.957 31.4985 55.824 31.9071 56.3429C32.3157 56.8445 32.7936 57.2315 33.5697 57.4046C34.294 57.558 38.2831 58.0574 38.4886 56.5375C38.7436 54.7105 38.7522 52.743 40.8452 45.366C44.1099 33.896 48.3563 28.3049 50.3562 26.3136C50.7129 25.9677 51.1108 25.9461 51.0891 26.519C50.9983 29.0378 50.7022 35.3144 50.4989 40.6505C49.9584 54.9463 52.5485 57.5883 56.2739 57.5883C59.1105 57.5883 63.1105 54.7624 67.4065 47.621C70.0897 43.1607 72.6819 38.804 74.5587 35.6517C75.8451 36.8538 77.3131 38.151 78.7725 39.5391C82.1713 42.7521 83.2828 45.8136 82.539 48.713C81.9768 50.9355 79.845 53.2209 76.0592 50.9982C74.9565 50.354 74.4874 49.8545 73.376 49.1193C72.7836 48.7215 71.8647 48.6092 71.3242 49.0178C69.8951 50.0901 69.0885 51.4458 68.6194 53.1301C68.1805 54.7732 69.8238 55.6294 71.5274 56.3839C72.9868 57.0478 76.1305 57.6293 78.1392 57.7007C85.9658 57.9666 92.2316 53.9256 96.5882 43.5174C97.3752 52.5074 100.69 57.5991 106.456 57.5991C110.322 57.5991 114.19 52.6089 115.885 47.7011C116.363 49.701 117.087 51.4349 118.017 52.9161C122.466 59.9558 131.097 58.4466 135.424 52.4662C136.771 50.609 136.976 49.9453 136.976 49.9453C137.607 55.5905 142.159 57.5774 144.762 57.5774C147.689 57.5774 150.69 56.1916 152.8 51.4349C153.056 51.9561 153.322 52.4468 153.629 52.9161C158.067 59.9558 166.698 58.4466 171.036 52.4662C171.23 52.1701 171.414 51.9258 171.565 51.6901L171.699 55.4045C171.699 55.4045 169.219 57.6705 167.7 59.0671C161.016 65.2011 155.933 69.8538 155.557 75.2613C155.088 82.1691 160.679 84.7312 164.923 85.0662C169.414 85.4253 173.271 82.9452 175.636 79.4556C177.719 76.3941 179.087 69.8128 178.986 63.3027C178.945 60.6908 178.882 57.3851 178.821 53.8241C181.178 51.1106 183.831 47.6599 186.261 43.6212C188.923 39.2321 191.759 33.3231 193.208 28.7223C193.208 28.7223 195.688 28.7438 198.321 28.5796C199.169 28.5277 199.413 28.7028 199.249 29.3146C199.065 30.0584 195.923 42.192 198.79 50.2739C200.76 55.8024 205.177 57.5883 207.811 57.5883C210.881 57.5883 213.821 55.2618 215.391 51.8134C215.585 52.1917 215.78 52.5679 216.005 52.9161C220.444 59.9558 229.044 58.4359 233.412 52.4662C234.402 51.1106 234.953 49.9453 234.953 49.9453C235.892 55.7937 240.443 57.5991 243.044 57.5991C245.768 57.5991 248.339 56.4877 250.432 51.5475C250.514 53.7225 250.646 55.4976 250.871 56.0575C251.003 56.4057 251.779 56.8338 252.33 57.0478C254.819 57.9666 257.351 57.5278 258.278 57.3332C258.931 57.2012 259.441 56.6911 259.504 55.344C259.686 51.8134 259.573 45.8849 260.646 41.4678C262.451 34.0799 264.124 31.213 264.92 29.7946C265.361 28.9968 265.869 28.865 265.88 29.7017C265.91 31.4053 266.003 36.4062 266.706 43.1412C267.208 48.0794 267.891 51.0068 268.42 51.9366C269.91 54.5786 271.767 54.7019 273.268 54.7019C274.228 54.7019 276.228 54.4359 276.053 52.7516C275.962 51.9366 276.115 46.8644 277.88 39.5803C279.043 34.815 280.971 30.5189 281.665 28.947C281.931 28.3655 282.044 28.8152 282.044 28.906C281.89 32.1815 281.564 42.9055 282.889 48.7626C284.708 56.7126 289.94 57.5991 291.767 57.5991C295.654 57.5991 298.85 54.6391 299.92 46.8449C300.186 44.966 299.797 43.5174 298.645 43.5174ZM135.495 38.7022C135.281 42.8233 134.474 46.2739 133.19 48.7733C130.842 53.3137 126.222 54.7428 124.189 48.2025C122.711 43.4784 123.21 37.0287 123.833 33.5479C124.73 28.3848 127.007 24.733 130.557 25.068C134.189 25.4271 135.964 30.1102 135.495 38.7022ZM171.096 38.7628C170.893 42.6502 169.883 46.5679 168.781 48.7733C166.506 53.344 161.75 54.7731 159.78 48.2025C158.435 43.701 158.751 37.8958 159.423 34.2419C160.292 29.4875 162.383 25.068 166.149 25.068C169.812 25.068 171.617 29.0895 171.096 38.7628ZM172.026 65.3327C171.974 72.4461 170.863 78.6706 168.474 80.4868C165.066 83.0576 160.485 81.1182 161.434 75.9357C162.271 71.3434 166.24 66.6603 172.037 60.935C172.037 60.935 172.057 62.2409 172.026 65.3327ZM233.494 38.8039C233.289 43.0804 232.34 46.4166 231.168 48.7733C228.891 53.344 224.178 54.7622 222.167 48.2025C221.075 44.6199 221.023 38.6396 221.81 33.6517C222.606 28.5685 224.842 24.733 228.534 25.068C232.186 25.4162 233.892 30.1102 233.494 38.8039Z" fill="#231E1F"/>
</svg>
